<svg id="Layer_4" data-name="Layer 4" xmlns="http://www.w3.org/2000/svg" viewBox="0 0 205.02 206"><defs><style>.cls-1{fill:#fff;}</style></defs><title>Codatlas_Logo_3C</title><path class="cls-1" d="M120.72,3H85.11a1,1,0,0,0-.93,1.38l80.3,198a1,1,0,0,0,.93.62H201a1,1,0,0,0,.93-1.38l-80.3-198A1,1,0,0,0,120.72,3Z"/><path class="cls-1" d="M64.54,3H28.93A1,1,0,0,0,28,4.38l80.3,198a1,1,0,0,0,.93.62h35.61a1,1,0,0,0,.93-1.38l-80.3-198A1,1,0,0,0,64.54,3Z"/><path class="cls-1" d="M44.93,98.43L3.07,201.62A1,1,0,0,0,4,203H39.61a1,1,0,0,0,.93-0.62l24-59.29a1,1,0,0,0,0-.75L46.78,98.43A1,1,0,0,0,44.93,98.43Z"/></svg>